<?xml version="1.0" encoding="UTF-8"?>
<svg id="b" data-name="Layer 2" xmlns="http://www.w3.org/2000/svg" width="473.83" height="699.447" xmlns:xlink="http://www.w3.org/1999/xlink" viewBox="0 0 473.83 699.447">
  <defs>
    <style>
      .m {
        fill: #000;
        font-family: IvyModeVF-Regular, 'IvyMode VF';
        font-size: 109.525px;
        font-variation-settings: 'wght' 400, 'ital' 0;
      }

      .n {
        filter: url(#d);
      }

      .o {
        letter-spacing: -.002em;
      }

      .p {
        letter-spacing: -.002em;
      }

      .q {
        letter-spacing: -.004em;
      }

      .r {
        fill: url(#f);
      }

      .r, .s, .t, .u, .v, .w, .x {
        stroke-width: 0px;
      }

      .s {
        fill: url(#j);
      }

      .t {
        fill: url(#i);
      }

      .u {
        fill: url(#h);
      }

      .v {
        fill: url(#g);
      }

      .w {
        fill: url(#k);
      }

      .x {
        fill: url(#l);
      }
    </style>
    <filter id="d" data-name="drop-shadow-1" filterUnits="userSpaceOnUse">
      <feOffset dx="7" dy="7"/>
      <feGaussianBlur result="e" stdDeviation="5"/>
      <feFlood flood-color="#000" flood-opacity=".75"/>
      <feComposite in2="e" operator="in"/>
      <feComposite in="SourceGraphic"/>
    </filter>
    <linearGradient id="f" x1="238.629" y1="134.521" x2="294.883" y2="134.521" gradientUnits="userSpaceOnUse">
      <stop offset="0" stop-color="#000"/>
      <stop offset=".011" stop-color="#000a0a"/>
      <stop offset=".07" stop-color="#004343"/>
      <stop offset=".131" stop-color="#007575"/>
      <stop offset=".193" stop-color="#009f9f"/>
      <stop offset=".255" stop-color="#00c2c2"/>
      <stop offset=".318" stop-color="#00dcdc"/>
      <stop offset=".382" stop-color="#00efef"/>
      <stop offset=".448" stop-color="#00fbfb"/>
      <stop offset=".518" stop-color="aqua"/>
      <stop offset=".968" stop-color="#000"/>
    </linearGradient>
    <linearGradient id="g" x1="329.295" y1="261.816" x2="379.635" y2="261.816" xlink:href="#f"/>
    <linearGradient id="h" x1="378.997" y1="492.665" x2="473.83" y2="492.665" xlink:href="#f"/>
    <linearGradient id="i" x1="0" y1="321.532" x2="313.433" y2="321.532" xlink:href="#f"/>
    <linearGradient id="j" x1="216.786" y1=".185" x2="244.14" y2=".185" xlink:href="#f"/>
    <linearGradient id="k" x1="216.786" y1=".185" x2="244.14" y2=".185" xlink:href="#f"/>
    <linearGradient id="l" x1="66.37" y1="282.466" x2="407.46" y2="282.466" xlink:href="#f"/>
  </defs>
  <g id="c" data-name="Layer 1">
    <g class="n">
      <g>
        <path class="r" d="M294.883,141.981c0,21.07-9.073,37.033-22.65,48.761l-7.595-22.347c-10.922-31.992-18.685-61.497-26.01-90.095,36.058,6.351,56.255,28.766,56.255,63.681Z"/>
        <path class="v" d="M379.635,290.616c-13.979-13.98-30.916-25.506-50.34-34.042,11.493-6.956,21.776-14.854,30.715-23.557l19.625,57.599Z"/>
        <path class="u" d="M473.83,566.613h-78.132l-16.702-49.197c25.305-27.086,40.662-61.262,44.358-98.698l50.475,147.895Z"/>
        <path class="t" d="M313.433,388.507h-179.014l-24.935,75.51c-5.68-2.823-10.351-5.478-13.879-7.729l-17.844-11.426-31.622,89.557,11.023,7.225c6.217,4.066,13.811,8.267,22.616,12.367l-4.167,12.602H0L163.354,85.861c16.298-5.612,34.378-9.409,52.558-9.409,5.074,0,9.947.235,14.585.739-7.595,29.74-15.895,60.052-25.506,90.364l-16.937,50.038h-56.154v89.053h26.01l-8.368,24.733h130.589c20.33,15.357,30.58,36.125,33.302,57.128Z"/>
        <path class="s" d="M230.194,0c-4.503,0-8.972.135-13.408.37h27.354c-4.536-.235-9.174-.37-13.946-.37Z"/>
        <path class="w" d="M230.194,0c-4.503,0-8.972.135-13.408.37h27.354c-4.536-.235-9.174-.37-13.946-.37Z"/>
        <path class="x" d="M296.866,263.093c-3.697-1.008-7.427-1.882-11.224-2.655v-1.68c2.923-1.075,5.814-2.151,8.603-3.36,24.968-10.216,44.896-23.927,59.682-40.191,21.709-23.792,32.529-53.029,32.529-84.987,0-54.473-32.798-107.233-104.007-124.405-11.728-2.823-24.498-4.705-38.31-5.444h-27.354c-8.569.437-17.004,1.311-25.271,2.554-43.586,6.452-81.963,22.784-104.142,39.083l19.323,53.768c15.021-10.72,37.57-22.482,63.312-29.572,14.55-4.033,30.11-6.553,45.904-6.553,68.05,0,95.774,38.646,95.774,82.332,0,29.068-13.711,50.643-33.706,65.631-24.532,18.382-58.506,26.783-88.112,26.783h-41.166v55.448h41.166c44.862,0,88.75,12.938,115.366,41.536,13.744,14.753,22.884,33.672,25.204,57.128.336,3.428.537,6.923.571,10.552.84,45.367-28.564,105.856-123.498,105.856-39.956,0-78.367-12.77-103.335-24.767-7.057-3.394-13.005-6.721-17.643-9.678l-20.163,57.128c5.243,3.461,11.56,6.956,18.718,10.35,29.504,14.114,73.931,26.615,123.263,26.615,76.754,0,131.899-26.212,164.395-65.496,23.02-27.791,34.714-62.136,34.714-98.328,0-72.15-48.626-121.112-110.594-137.646Z"/>
      </g>
      <text class="m" transform="translate(0 669.547) scale(1.575 1)"><tspan class="o" x="0" y="0">B</tspan><tspan x="70.752" y="0">ri</tspan><tspan class="q" x="135.37" y="0">g</tspan><tspan class="p" x="193.857" y="0">g</tspan><tspan x="252.561" y="0">s</tspan></text>
    </g>
  </g>
</svg>