<?xml version="1.0" encoding="UTF-8"?>
<svg id="uuid-f58d4de3-af8a-4de0-8e86-c302ea268bb2" data-name="Layer 2" xmlns="http://www.w3.org/2000/svg" xmlns:xlink="http://www.w3.org/1999/xlink" viewBox="0 0 876.491 879.358">
  <defs>
    <style>
      .uuid-9bbeef7f-a717-4f77-9e37-08fd1581fc6c {
        fill: url(#uuid-de850708-1c5e-4e51-b75d-1c1041fa1108);
      }

      .uuid-9bbeef7f-a717-4f77-9e37-08fd1581fc6c, .uuid-1d47a4ed-54f3-40a4-a0d3-e180fab1efdc, .uuid-bc5a7d7f-b65a-48ae-b0eb-4242e6756ccf, .uuid-1fe53dba-f67a-4916-99b4-0f461b60d4cd, .uuid-fae195f7-544c-4d46-824c-01f217fcf390, .uuid-878172f2-64ab-41a0-b95c-a451a7574148, .uuid-b5bf62e4-fc39-4d3f-a3d0-9429f2e98e3b, .uuid-10dba883-cd1c-4b6d-864b-c9bbe9ce8d8d, .uuid-71ba9d4b-969e-4a6a-afca-e18f1e478de4, .uuid-e2eaa19b-ef6f-4e40-be62-0ba554b3520c, .uuid-d1ced2ca-f291-49d9-9ae6-64d6a41f8b19, .uuid-3014bbbf-3f26-4be5-b3a0-03f14ad8ac81, .uuid-d18a3f91-bf82-440f-9831-06c94a82e07a, .uuid-4c824f92-5b99-4e43-8e4d-8f8e63c6c25f, .uuid-f2b49338-3e54-42cb-b236-f98002559f42, .uuid-27509775-66b4-4a38-8df9-035b706bc894, .uuid-6d624dd7-93be-40ed-8431-dd097314f768, .uuid-f0d9f169-33f5-4190-a47f-1c100aad70b0 {
        stroke-width: 0px;
      }

      .uuid-1d47a4ed-54f3-40a4-a0d3-e180fab1efdc {
        fill: url(#uuid-a941bf34-4ada-48ae-8bde-4c3367e903c8);
      }

      .uuid-bc5a7d7f-b65a-48ae-b0eb-4242e6756ccf {
        fill: url(#uuid-9bbc3c64-9af0-4902-9670-809c6f4556e2);
      }

      .uuid-1fe53dba-f67a-4916-99b4-0f461b60d4cd {
        fill: url(#uuid-7976f6ce-4b15-4363-8c77-9d91c47512c2);
      }

      .uuid-fae195f7-544c-4d46-824c-01f217fcf390 {
        fill: url(#uuid-47bfe3cf-7581-4da2-b8f3-b432fea0f46e);
      }

      .uuid-878172f2-64ab-41a0-b95c-a451a7574148 {
        fill: url(#uuid-c43873d5-8c70-4e8a-9b72-b216e6999e78);
      }

      .uuid-b5bf62e4-fc39-4d3f-a3d0-9429f2e98e3b {
        fill: url(#uuid-c45869cc-a662-4cfd-8d02-0d849b3fe99d);
      }

      .uuid-10dba883-cd1c-4b6d-864b-c9bbe9ce8d8d {
        fill: url(#uuid-c7973793-bd38-4af5-a713-16194d69635a);
      }

      .uuid-71ba9d4b-969e-4a6a-afca-e18f1e478de4 {
        fill: url(#uuid-39dec178-283d-44fc-ac04-1e638bc97378);
      }

      .uuid-e2eaa19b-ef6f-4e40-be62-0ba554b3520c {
        fill: url(#uuid-d249e5ff-6128-41b8-8214-5a0c548ff126);
      }

      .uuid-d1ced2ca-f291-49d9-9ae6-64d6a41f8b19 {
        fill: url(#uuid-1daed8ad-33b1-414c-bdc2-ffeba0200be9);
      }

      .uuid-3014bbbf-3f26-4be5-b3a0-03f14ad8ac81 {
        fill: url(#uuid-7008f9af-ec3c-4863-8b96-f0e849cc43f9);
      }

      .uuid-d18a3f91-bf82-440f-9831-06c94a82e07a {
        fill: url(#uuid-407d8639-0119-4c6c-a61e-12ce32c630cb);
      }

      .uuid-4c824f92-5b99-4e43-8e4d-8f8e63c6c25f {
        fill: url(#uuid-5d1fdde6-9ec7-44d7-8bef-ceecea4e253c);
      }

      .uuid-f2b49338-3e54-42cb-b236-f98002559f42 {
        fill: url(#uuid-e823bbf8-700e-4501-87cd-a22443cb2060);
      }

      .uuid-27509775-66b4-4a38-8df9-035b706bc894 {
        fill: url(#uuid-08bea18e-ada5-44f4-a83c-dc911269e27c);
      }

      .uuid-6d624dd7-93be-40ed-8431-dd097314f768 {
        fill: url(#uuid-278f6692-94e4-4fcf-abef-3274088e0695);
      }

      .uuid-f0d9f169-33f5-4190-a47f-1c100aad70b0 {
        fill: url(#uuid-247cfcfb-45d5-461f-950a-5d22fe394d3d);
      }
    </style>
    <linearGradient id="uuid-407d8639-0119-4c6c-a61e-12ce32c630cb" x1="116.821" y1="303.397" x2="327.585" y2="301.029" gradientUnits="userSpaceOnUse">
      <stop offset="0" stop-color="#d2d2d2"/>
      <stop offset=".013" stop-color="#cbcacb"/>
      <stop offset=".064" stop-color="#b4b4b4"/>
      <stop offset=".119" stop-color="#a4a3a4"/>
      <stop offset=".18" stop-color="#9a9a9a"/>
      <stop offset=".26" stop-color="#989798"/>
      <stop offset=".572" stop-color="#0b529d"/>
      <stop offset=".994" stop-color="#272361"/>
    </linearGradient>
    <linearGradient id="uuid-7008f9af-ec3c-4863-8b96-f0e849cc43f9" x1="116.947" y1="314.56" x2="327.71" y2="312.192" xlink:href="#uuid-407d8639-0119-4c6c-a61e-12ce32c630cb"/>
    <linearGradient id="uuid-278f6692-94e4-4fcf-abef-3274088e0695" x1="509.046" y1="437.619" x2="252.104" y2="322.764" xlink:href="#uuid-407d8639-0119-4c6c-a61e-12ce32c630cb"/>
    <linearGradient id="uuid-a941bf34-4ada-48ae-8bde-4c3367e903c8" x1="545.796" y1="355.406" x2="288.854" y2="240.552" xlink:href="#uuid-407d8639-0119-4c6c-a61e-12ce32c630cb"/>
    <linearGradient id="uuid-1daed8ad-33b1-414c-bdc2-ffeba0200be9" x1="524.89" y1="402.174" x2="267.948" y2="287.319" xlink:href="#uuid-407d8639-0119-4c6c-a61e-12ce32c630cb"/>
    <linearGradient id="uuid-9bbc3c64-9af0-4902-9670-809c6f4556e2" x1="118.603" y1="135.747" x2="458.43" y2="103.777" xlink:href="#uuid-407d8639-0119-4c6c-a61e-12ce32c630cb"/>
    <linearGradient id="uuid-d249e5ff-6128-41b8-8214-5a0c548ff126" x1="555.067" y1="304.532" x2="765.83" y2="302.164" gradientUnits="userSpaceOnUse">
      <stop offset="0" stop-color="#fcb023"/>
      <stop offset=".029" stop-color="#f99d22"/>
      <stop offset=".076" stop-color="#f58722"/>
      <stop offset=".127" stop-color="#f27622"/>
      <stop offset=".184" stop-color="#f16d22"/>
      <stop offset=".258" stop-color="#f16a22"/>
      <stop offset=".571" stop-color="#ef4223"/>
      <stop offset=".994" stop-color="#000"/>
    </linearGradient>
    <linearGradient id="uuid-e823bbf8-700e-4501-87cd-a22443cb2060" x1="555.192" y1="315.695" x2="765.956" y2="313.327" xlink:href="#uuid-d249e5ff-6128-41b8-8214-5a0c548ff126"/>
    <linearGradient id="uuid-08bea18e-ada5-44f4-a83c-dc911269e27c" x1="947.292" y1="438.754" x2="690.349" y2="323.899" xlink:href="#uuid-d249e5ff-6128-41b8-8214-5a0c548ff126"/>
    <linearGradient id="uuid-c7973793-bd38-4af5-a713-16194d69635a" x1="984.041" y1="356.541" x2="727.099" y2="241.686" xlink:href="#uuid-d249e5ff-6128-41b8-8214-5a0c548ff126"/>
    <linearGradient id="uuid-de850708-1c5e-4e51-b75d-1c1041fa1108" x1="963.136" y1="403.309" x2="706.193" y2="288.454" xlink:href="#uuid-d249e5ff-6128-41b8-8214-5a0c548ff126"/>
    <linearGradient id="uuid-c45869cc-a662-4cfd-8d02-0d849b3fe99d" x1="556.849" y1="136.881" x2="896.676" y2="104.912" xlink:href="#uuid-d249e5ff-6128-41b8-8214-5a0c548ff126"/>
    <linearGradient id="uuid-5d1fdde6-9ec7-44d7-8bef-ceecea4e253c" x1="336.339" y1="679.79" x2="547.102" y2="677.422" gradientUnits="userSpaceOnUse">
      <stop offset="0" stop-color="#ccebf3"/>
      <stop offset=".052" stop-color="#b7e0e9"/>
      <stop offset=".165" stop-color="#91cbd7"/>
      <stop offset=".269" stop-color="#75bcca"/>
      <stop offset=".361" stop-color="#64b3c2"/>
      <stop offset=".429" stop-color="#5fb0c0"/>
      <stop offset=".572" stop-color="teal"/>
      <stop offset=".994" stop-color="#000"/>
    </linearGradient>
    <linearGradient id="uuid-39dec178-283d-44fc-ac04-1e638bc97378" x1="336.464" y1="690.954" x2="547.228" y2="688.585" gradientUnits="userSpaceOnUse">
      <stop offset="0" stop-color="#ccebf3"/>
      <stop offset=".028" stop-color="#b0dce6"/>
      <stop offset=".066" stop-color="#93ccd8"/>
      <stop offset=".106" stop-color="#7cbfcd"/>
      <stop offset=".149" stop-color="#6bb6c5"/>
      <stop offset=".197" stop-color="#62b1c1"/>
      <stop offset=".26" stop-color="#5fb0c0"/>
      <stop offset=".572" stop-color="teal"/>
      <stop offset=".994" stop-color="#000"/>
    </linearGradient>
    <linearGradient id="uuid-c43873d5-8c70-4e8a-9b72-b216e6999e78" x1="728.564" y1="814.012" x2="471.621" y2="699.158" xlink:href="#uuid-39dec178-283d-44fc-ac04-1e638bc97378"/>
    <linearGradient id="uuid-47bfe3cf-7581-4da2-b8f3-b432fea0f46e" x1="765.313" y1="731.799" x2="508.371" y2="616.945" xlink:href="#uuid-39dec178-283d-44fc-ac04-1e638bc97378"/>
    <linearGradient id="uuid-247cfcfb-45d5-461f-950a-5d22fe394d3d" x1="744.408" y1="778.567" x2="487.465" y2="663.713" xlink:href="#uuid-39dec178-283d-44fc-ac04-1e638bc97378"/>
    <linearGradient id="uuid-7976f6ce-4b15-4363-8c77-9d91c47512c2" x1="338.121" y1="512.14" x2="677.948" y2="480.17" xlink:href="#uuid-39dec178-283d-44fc-ac04-1e638bc97378"/>
  </defs>
  <g id="uuid-3541a7f6-baa0-4c7c-806c-5228141690de" data-name="Layer 1">
    <g>
      <g>
        <path class="uuid-d18a3f91-bf82-440f-9831-06c94a82e07a" d="M73.63,311.941c-1.935,4.564-3.709,8.926-5.314,13.087l61.103,32.629-30.412-108.46-25.377,62.744Z"/>
        <path class="uuid-3014bbbf-3f26-4be5-b3a0-03f14ad8ac81" d="M.395,126.309v250.579l219.48,126.077v-250.579L.395,126.309ZM153.427,443.271l-22.319-79.596-64.406-34.385c-3.818,10.254-6.581,19.206-8.296,26.854-2.61,11.683-4.072,23.038-4.376,34.058l-17.301-9.237c4.613-9.094,8.879-18.096,12.798-27.006,3.92-8.901,8.034-18.55,12.342-28.956l7.383-17.39,40.583-99.466.929.488,70.801,249.665-28.14-15.028Z"/>
      </g>
      <g>
        <path class="uuid-6d624dd7-93be-40ed-8431-dd097314f768" d="M373.411,302.053c-6.758-5.127-15.944-3.866-27.544,3.774l-31.065,20.475v99.87c1.647-.462,4.556-1.891,8.708-4.287,4.766-2.757,9.136-5.446,13.103-8.061,16.012-10.548,27.829-22.593,35.47-36.142,7.64-13.549,11.456-28.258,11.456-44.127s-3.379-26.375-10.128-31.502Z"/>
        <path class="uuid-1d47a4ed-54f3-40a4-a0d3-e180fab1efdc" d="M359.744,285.798c4.993-7.447,8.817-15.684,11.456-24.677,2.648-9.002,3.967-17.953,3.967-26.854,0-13.936-3.085-23.375-9.254-28.308-6.169-4.934-15.197-3.48-27.098,4.354l-24.013,15.827v95.516l27.325-18.004c6.749-4.446,12.624-10.397,17.617-17.852Z"/>
        <path class="uuid-d1ced2ca-f291-49d9-9ae6-64d6a41f8b19" d="M219.874,252.385v250.579l218.371-126.077V126.309l-218.371,126.077ZM402.82,347.853c-5.22,12.145-12.818,23.828-22.803,35.058-9.994,11.221-22.03,21.483-36.134,30.771l-53.751,35.419v-211.355l55.07-36.285c18.214-12.003,32.057-16.819,41.53-14.448,9.473,2.379,14.213,11.296,14.213,26.787,0,9.094-1.799,18.315-5.396,27.644-3.606,9.346-8.414,18.18-14.432,26.501-6.027,8.321-12.633,15.726-19.828,22.206v.58c9.548-5.514,17.987-8.464,25.333-8.859,7.346-.378,13.179,1.824,17.516,6.606,4.329,4.799,6.497,12.515,6.497,23.156,0,12.003-2.606,24.072-7.817,36.218Z"/>
      </g>
      <path class="uuid-bc5a7d7f-b65a-48ae-b0eb-4242e6756ccf" d="M218.24,0L0,125.913l219.611,126.704,218.24-125.913L218.24,0ZM333.958,123.439c-6.957,3.151-15.519,5.296-25.68,6.428-10.169,1.132-20.735,1.309-31.707.541-10.963-.769-21.183-2.238-30.625-4.426l-.541.245c6.957,4.612,11.724,9.68,14.319,15.221,2.578,5.533,2.316,10.989-.803,16.37-3.119,5.372-9.23,10.128-18.326,14.25-12.13,5.499-25.857,8.928-41.199,10.305-15.342,1.377-30.996.752-46.947-1.884-15.967-2.627-30.819-7.053-44.546-13.27-8.03-3.641-15.164-7.771-21.403-12.375-6.247-4.604-11.952-9.866-17.125-15.762l20.338-5.338c-.541,4.612-.321,8.675.668,12.189.98,3.514,3.161,6.85,6.551,10.001,3.39,3.159,8.292,6.183,14.716,9.097,8.385,3.801,18.013,6.428,28.892,7.881,10.879,1.461,21.986,1.478,33.304.059,11.327-1.411,21.893-4.342,31.707-8.785,8.563-3.886,14.404-8.472,17.523-13.768,3.119-5.296,2.756-10.956-1.074-16.978-3.838-6.023-11.64-11.944-23.406-17.764l1.868-1.816,11.775,2.669c14.801,3.472,30.27,5.068,46.415,4.789,16.136-.287,29.737-2.931,40.802-7.949,10.338-4.688,15.105-9.798,14.311-15.34-.803-5.541-6.289-10.609-16.458-15.221-10.16-4.604-21.453-7.577-33.837-8.912-12.4-1.335-23.947-1.672-34.648-1.031l-.803.118-1.868-2.298c16.939-1.537,33.879-1.537,50.827,0,16.939,1.537,32.543,5.533,46.82,12.003,9.273,4.198,16.086,8.751,20.464,13.642,4.37,4.891,5.79,9.706,4.277,14.427-1.522,4.73-6.382,8.962-14.581,12.679Z"/>
    </g>
    <g>
      <g>
        <path class="uuid-e2eaa19b-ef6f-4e40-be62-0ba554b3520c" d="M511.875,313.076c-1.935,4.564-3.709,8.926-5.314,13.087l61.103,32.629-30.412-108.46-25.377,62.744Z"/>
        <path class="uuid-f2b49338-3e54-42cb-b236-f98002559f42" d="M438.64,127.444v250.579l219.48,126.077v-250.579l-219.48-126.077ZM591.673,444.405l-22.319-79.596-64.406-34.385c-3.818,10.254-6.581,19.206-8.296,26.854-2.61,11.683-4.072,23.038-4.376,34.058l-17.301-9.237c4.613-9.094,8.879-18.096,12.798-27.006,3.92-8.901,8.034-18.55,12.342-28.956l7.383-17.39,40.583-99.466.929.488,70.801,249.665-28.14-15.028Z"/>
      </g>
      <g>
        <path class="uuid-27509775-66b4-4a38-8df9-035b706bc894" d="M811.656,303.188c-6.758-5.127-15.944-3.866-27.544,3.774l-31.065,20.475v99.87c1.647-.462,4.556-1.891,8.708-4.287,4.766-2.757,9.136-5.446,13.103-8.061,16.012-10.548,27.829-22.593,35.47-36.142,7.64-13.549,11.456-28.258,11.456-44.127s-3.379-26.375-10.128-31.502Z"/>
        <path class="uuid-10dba883-cd1c-4b6d-864b-c9bbe9ce8d8d" d="M797.99,286.933c4.993-7.447,8.817-15.684,11.456-24.677,2.648-9.002,3.967-17.953,3.967-26.854,0-13.936-3.085-23.375-9.254-28.308s-15.197-3.48-27.098,4.354l-24.013,15.827v95.516l27.325-18.004c6.749-4.446,12.624-10.397,17.617-17.852Z"/>
        <path class="uuid-9bbeef7f-a717-4f77-9e37-08fd1581fc6c" d="M658.12,253.52v250.579l218.371-126.077V127.444l-218.371,126.077ZM841.066,348.988c-5.22,12.145-12.818,23.828-22.803,35.058-9.994,11.221-22.03,21.483-36.134,30.771l-53.751,35.419v-211.355l55.07-36.285c18.214-12.003,32.057-16.819,41.53-14.448,9.473,2.379,14.213,11.296,14.213,26.787,0,9.094-1.799,18.315-5.396,27.644-3.606,9.346-8.414,18.18-14.432,26.501-6.027,8.321-12.633,15.726-19.828,22.206v.58c9.548-5.514,17.987-8.464,25.333-8.859,7.346-.378,13.179,1.824,17.516,6.606,4.329,4.799,6.497,12.515,6.497,23.156,0,12.003-2.606,24.072-7.817,36.218Z"/>
      </g>
      <path class="uuid-b5bf62e4-fc39-4d3f-a3d0-9429f2e98e3b" d="M656.485,1.135l-218.24,125.913,219.611,126.704,218.24-125.913L656.485,1.135ZM772.203,124.574c-6.957,3.151-15.519,5.296-25.68,6.428-10.169,1.132-20.735,1.309-31.707.541-10.963-.769-21.183-2.238-30.625-4.426l-.541.245c6.957,4.612,11.724,9.68,14.319,15.221,2.578,5.533,2.316,10.989-.803,16.37-3.119,5.372-9.23,10.128-18.326,14.25-12.13,5.499-25.857,8.928-41.199,10.305-15.342,1.377-30.996.752-46.947-1.884-15.967-2.627-30.819-7.053-44.546-13.27-8.03-3.641-15.164-7.771-21.403-12.375-6.247-4.604-11.952-9.866-17.125-15.762l20.338-5.338c-.541,4.612-.321,8.675.668,12.189.98,3.514,3.161,6.85,6.551,10.001,3.39,3.159,8.292,6.183,14.716,9.097,8.385,3.801,18.013,6.428,28.892,7.881,10.879,1.461,21.986,1.478,33.304.059,11.327-1.411,21.893-4.342,31.707-8.785,8.563-3.886,14.404-8.472,17.523-13.768,3.119-5.296,2.756-10.956-1.074-16.978-3.838-6.023-11.64-11.944-23.406-17.764l1.868-1.816,11.775,2.669c14.801,3.472,30.27,5.068,46.415,4.789,16.136-.287,29.737-2.931,40.802-7.949,10.338-4.688,15.105-9.798,14.311-15.34-.803-5.541-6.289-10.609-16.458-15.221-10.16-4.604-21.453-7.577-33.837-8.912-12.4-1.335-23.947-1.672-34.648-1.031l-.803.118-1.868-2.298c16.939-1.537,33.879-1.537,50.827,0,16.939,1.537,32.543,5.533,46.82,12.003,9.273,4.198,16.086,8.751,20.464,13.642,4.37,4.891,5.79,9.706,4.277,14.427-1.522,4.73-6.382,8.962-14.581,12.679Z"/>
    </g>
    <g>
      <g>
        <path class="uuid-4c824f92-5b99-4e43-8e4d-8f8e63c6c25f" d="M293.147,688.334c-1.935,4.564-3.709,8.926-5.314,13.087l61.103,32.629-30.412-108.46-25.377,62.744Z"/>
        <path class="uuid-71ba9d4b-969e-4a6a-afca-e18f1e478de4" d="M219.912,502.702v250.579l219.48,126.077v-250.579l-219.48-126.077ZM372.945,819.664l-22.319-79.596-64.406-34.385c-3.818,10.254-6.581,19.206-8.296,26.854-2.61,11.683-4.072,23.038-4.376,34.058l-17.301-9.237c4.613-9.094,8.879-18.096,12.798-27.006,3.92-8.901,8.034-18.55,12.342-28.956l7.383-17.39,40.583-99.466.929.488,70.801,249.665-28.14-15.028Z"/>
      </g>
      <g>
        <path class="uuid-878172f2-64ab-41a0-b95c-a451a7574148" d="M592.928,678.447c-6.758-5.127-15.944-3.866-27.544,3.774l-31.065,20.475v99.87c1.647-.462,4.556-1.891,8.708-4.287,4.766-2.757,9.136-5.446,13.103-8.061,16.012-10.548,27.829-22.593,35.47-36.142,7.64-13.549,11.456-28.258,11.456-44.127s-3.379-26.375-10.128-31.502Z"/>
        <path class="uuid-fae195f7-544c-4d46-824c-01f217fcf390" d="M579.262,662.191c4.993-7.447,8.817-15.684,11.456-24.677,2.648-9.002,3.967-17.953,3.967-26.854,0-13.936-3.085-23.375-9.254-28.308-6.169-4.934-15.197-3.48-27.098,4.354l-24.013,15.827v95.516l27.325-18.004c6.749-4.446,12.624-10.397,17.617-17.852Z"/>
        <path class="uuid-f0d9f169-33f5-4190-a47f-1c100aad70b0" d="M439.392,628.779v250.579l218.371-126.077v-250.579l-218.371,126.077ZM622.338,724.246c-5.22,12.145-12.818,23.828-22.803,35.058-9.994,11.221-22.03,21.483-36.134,30.771l-53.751,35.419v-211.355l55.07-36.285c18.214-12.003,32.057-16.819,41.53-14.448,9.473,2.379,14.213,11.296,14.213,26.787,0,9.094-1.799,18.315-5.396,27.644-3.606,9.346-8.414,18.18-14.432,26.501-6.027,8.321-12.633,15.726-19.828,22.206v.58c9.548-5.514,17.987-8.464,25.333-8.859,7.346-.378,13.179,1.824,17.516,6.606,4.329,4.799,6.497,12.515,6.497,23.156,0,12.003-2.606,24.072-7.817,36.218Z"/>
      </g>
      <path class="uuid-1fe53dba-f67a-4916-99b4-0f461b60d4cd" d="M437.757,376.393l-218.24,125.913,219.611,126.704,218.24-125.913-219.611-126.704ZM553.475,499.832c-6.957,3.151-15.519,5.296-25.68,6.428-10.169,1.132-20.735,1.309-31.707.541-10.963-.769-21.183-2.238-30.625-4.426l-.541.245c6.957,4.612,11.724,9.68,14.319,15.221,2.578,5.533,2.316,10.989-.803,16.37-3.119,5.372-9.23,10.128-18.326,14.25-12.13,5.499-25.857,8.928-41.199,10.305-15.342,1.377-30.996.752-46.947-1.884-15.967-2.627-30.819-7.053-44.546-13.27-8.03-3.641-15.164-7.771-21.403-12.375-6.247-4.604-11.952-9.866-17.125-15.762l20.338-5.338c-.541,4.612-.321,8.675.668,12.189.98,3.514,3.161,6.85,6.551,10.001,3.39,3.159,8.292,6.183,14.716,9.097,8.385,3.801,18.013,6.428,28.892,7.881,10.879,1.461,21.986,1.478,33.304.059,11.327-1.411,21.893-4.342,31.707-8.785,8.563-3.886,14.404-8.472,17.523-13.768,3.119-5.296,2.756-10.956-1.074-16.978-3.838-6.023-11.64-11.944-23.406-17.764l1.868-1.816,11.775,2.669c14.801,3.472,30.27,5.068,46.415,4.789,16.136-.287,29.737-2.931,40.802-7.949,10.338-4.688,15.105-9.798,14.311-15.34-.803-5.541-6.289-10.609-16.458-15.221-10.16-4.604-21.453-7.577-33.837-8.912-12.4-1.335-23.947-1.672-34.648-1.031l-.803.118-1.868-2.298c16.939-1.537,33.879-1.537,50.827,0,16.939,1.537,32.543,5.533,46.82,12.003,9.273,4.198,16.086,8.751,20.464,13.642,4.37,4.891,5.79,9.706,4.277,14.427-1.522,4.73-6.382,8.962-14.581,12.679Z"/>
    </g>
  </g>
</svg>