<?xml version="1.0" encoding="UTF-8"?>
<svg id="uuid-905fa74c-2df4-4a7b-8937-821585aeeb39" data-name="Layer 2" xmlns="http://www.w3.org/2000/svg" xmlns:xlink="http://www.w3.org/1999/xlink" viewBox="0 0 923.748 1047.685">
  <defs>
    <style>
      .uuid-d0dbb8ec-2c6d-45e1-836a-86fa771772dc {
        fill: url(#uuid-597e2454-ffa0-444b-9c72-4e81525a2a71);
      }

      .uuid-d0dbb8ec-2c6d-45e1-836a-86fa771772dc, .uuid-5ad3ae0a-33a8-4517-812c-78f08023ca45, .uuid-2de051fc-4bbc-4465-84d5-ba58732b5f8b, .uuid-bbb4cc51-bd9a-49ed-9713-dd3143815de6, .uuid-21b5247f-954e-4ca4-b6d2-0284bb9d34ca, .uuid-7f51b360-68f2-4d7c-9e0b-acb9341af45d {
        stroke: #fff;
        stroke-miterlimit: 10;
      }

      .uuid-5ad3ae0a-33a8-4517-812c-78f08023ca45 {
        fill: url(#uuid-2c7e25e0-d4a1-47bf-8901-af2d11a43e1d);
      }

      .uuid-2de051fc-4bbc-4465-84d5-ba58732b5f8b {
        fill: url(#uuid-337e0c07-f43a-40d2-8a4c-d0697a8397c8);
      }

      .uuid-bbb4cc51-bd9a-49ed-9713-dd3143815de6 {
        fill: url(#uuid-286d2d1b-059e-4117-a91f-0cda9cd39162);
      }

      .uuid-21b5247f-954e-4ca4-b6d2-0284bb9d34ca {
        fill: url(#uuid-16fb40e8-7a5e-4374-b3d2-e6dded9172b3);
      }

      .uuid-7f51b360-68f2-4d7c-9e0b-acb9341af45d {
        fill: url(#uuid-372791a1-5399-4c19-99ef-33db7b782d86);
      }
    </style>
    <linearGradient id="uuid-2c7e25e0-d4a1-47bf-8901-af2d11a43e1d" x1="442.597" y1="1059.88" x2="-10.383" y2="289.347" gradientUnits="userSpaceOnUse">
      <stop offset="0" stop-color="#00a99d"/>
      <stop offset="1" stop-color="#000"/>
    </linearGradient>
    <linearGradient id="uuid-372791a1-5399-4c19-99ef-33db7b782d86" data-name="AB Green Black" x1="458.233" y1="1050.687" x2="5.254" y2="280.155" gradientUnits="userSpaceOnUse">
      <stop offset="0" stop-color="#00a99d"/>
      <stop offset="1" stop-color="#000"/>
    </linearGradient>
    <linearGradient id="uuid-597e2454-ffa0-444b-9c72-4e81525a2a71" x1="510.152" y1="1125.26" x2="964.3" y2="305.694" xlink:href="#uuid-2c7e25e0-d4a1-47bf-8901-af2d11a43e1d"/>
    <linearGradient id="uuid-16fb40e8-7a5e-4374-b3d2-e6dded9172b3" x1="416.469" y1="1073.026" x2="870.617" y2="253.459" gradientUnits="userSpaceOnUse">
      <stop offset="0" stop-color="#00a99d"/>
      <stop offset="1" stop-color="#000"/>
    </linearGradient>
    <linearGradient id="uuid-286d2d1b-059e-4117-a91f-0cda9cd39162" data-name="AB Green Black" x1="454.693" y1="1094.207" x2="908.841" y2="274.64" xlink:href="#uuid-372791a1-5399-4c19-99ef-33db7b782d86"/>
    <linearGradient id="uuid-337e0c07-f43a-40d2-8a4c-d0697a8397c8" data-name="AB Green Black" x1="459.098" y1="501.571" x2="460.019" y2="27.864" xlink:href="#uuid-372791a1-5399-4c19-99ef-33db7b782d86"/>
  </defs>
  <g id="uuid-49d44fb7-2dfc-4c0f-acb8-f59d18357d9a" data-name="Layer 1">
    <g>
      <g>
        <path class="uuid-5ad3ae0a-33a8-4517-812c-78f08023ca45" d="M151.419,651.167c-3.987,9.453-7.643,18.488-10.95,27.105l125.917,67.581-62.672-224.643-52.296,129.956Z"/>
        <path class="uuid-7f51b360-68f2-4d7c-9e0b-acb9341af45d" d="M.5,266.684v519.004l452.293,261.132v-519.004L.5,266.684ZM315.862,923.18l-45.994-164.861-132.725-71.219c-7.868,21.239-13.561,39.779-17.095,55.621-5.379,24.198-8.391,47.717-9.018,70.54l-35.653-19.132c9.506-18.836,18.297-37.481,26.375-55.934,8.077-18.436,16.556-38.421,25.434-59.973l15.215-36.019,83.632-206.016,1.915,1.01,145.903,517.11-57.989-31.127Z"/>
      </g>
      <g>
        <path class="uuid-d0dbb8ec-2c6d-45e1-836a-86fa771772dc" d="M788.962,630.689c-13.997-10.619-33.024-8.008-57.049,7.817l-64.343,42.408v206.851c3.412-.957,9.435-3.917,18.036-8.878,9.871-5.71,18.923-11.281,27.14-16.695,33.164-21.848,57.641-46.795,73.465-74.858,15.824-28.063,23.728-58.528,23.728-91.396s-6.998-54.629-20.978-65.248Z"/>
        <path class="uuid-21b5247f-954e-4ca4-b6d2-0284bb9d34ca" d="M760.655,597.02c10.341-15.424,18.262-32.485,23.728-51.112,5.484-18.645,8.217-37.185,8.217-55.621,0-28.864-6.389-48.414-19.167-58.633-12.778-10.219-31.475-7.207-56.126,9.018l-49.737,32.781v197.833l56.596-37.29c13.979-9.209,26.148-21.535,36.489-36.976Z"/>
        <path class="uuid-bbb4cc51-bd9a-49ed-9713-dd3143815de6" d="M470.954,527.815v519.004l452.293-261.132V266.684l-452.293,261.132ZM849.875,725.549c-10.811,25.156-26.548,49.354-47.23,72.612-20.699,23.241-45.628,44.497-74.84,63.734l-111.329,73.361v-437.761l114.062-75.154c37.725-24.86,66.397-34.835,86.017-29.926,19.62,4.927,29.438,23.397,29.438,55.482,0,18.836-3.725,37.934-11.176,57.258-7.468,19.359-17.426,37.655-29.891,54.89-12.482,17.235-26.165,32.572-41.067,45.994v1.201c19.776-11.42,37.255-17.531,52.47-18.349,15.215-.783,27.297,3.778,36.28,13.683,8.965,9.94,13.457,25.922,13.457,47.961,0,24.86-5.397,49.859-16.19,75.014Z"/>
      </g>
      <path class="uuid-2de051fc-4bbc-4465-84d5-ba58732b5f8b" d="M458.155.577L8.684,260.079l452.293,261.132,449.47-259.502L458.155.577ZM696.478,254.979c-14.327,6.493-31.962,10.915-52.888,13.248-20.943,2.333-42.704,2.698-65.3,1.114-22.579-1.584-43.627-4.613-63.072-9.122l-1.114.505c14.327,9.505,24.146,19.951,29.491,31.371,5.309,11.403,4.77,22.649-1.654,33.738-6.424,11.072-19.01,20.873-37.742,29.369-24.982,11.333-53.254,18.401-84.85,21.239-31.597,2.838-63.838,1.549-96.688-3.882-32.885-5.414-63.472-14.536-91.744-27.349-16.538-7.503-31.231-16.016-44.079-25.504-12.865-9.488-24.616-20.333-35.27-32.485l41.886-11.002c-1.114,9.505-.661,17.879,1.375,25.121,2.019,7.242,6.511,14.118,13.492,20.612,6.981,6.511,17.078,12.743,30.309,18.749,17.27,7.834,37.098,13.248,59.504,16.242,22.405,3.012,45.28,3.047,68.59.122,23.328-2.907,45.089-8.948,65.3-18.105,17.635-8.008,29.665-17.461,36.088-28.376,6.424-10.915,5.675-22.579-2.211-34.992-7.904-12.412-23.972-24.616-48.205-36.611l3.847-3.743,24.25,5.501c30.483,7.155,62.341,10.445,95.592,9.871,33.233-.592,61.244-6.041,84.032-16.382,21.291-9.662,31.109-20.194,29.473-31.614-1.654-11.42-12.952-21.865-33.895-31.371-20.925-9.488-44.184-15.616-69.687-18.366-25.539-2.751-49.319-3.447-71.359-2.124l-1.654.244-3.848-4.735c34.887-3.168,69.775-3.168,104.679,0,34.887,3.168,67.024,11.403,96.427,24.738,19.097,8.652,33.129,18.035,42.147,28.115,9,10.08,11.925,20.003,8.809,29.734-3.134,9.749-13.144,18.471-30.03,26.131Z"/>
    </g>
  </g>
</svg>