<?xml version="1.0" encoding="UTF-8"?>
<svg id="b" data-name="Layer 2" xmlns="http://www.w3.org/2000/svg" width="1043.102" height="1035.283" xmlns:xlink="http://www.w3.org/1999/xlink" viewBox="0 0 1043.102 1035.283">
  <defs>
    <style>
      .r, .s, .t, .u, .v, .w, .x, .y, .z, .aa, .ab, .ac {
        stroke-width: 0px;
      }

      .r, .ad {
        fill: none;
      }

      .s {
        fill: #3d5655;
        opacity: .59;
      }

      .ad {
        stroke: #fff;
        stroke-miterlimit: 10;
        stroke-width: 5px;
      }

      .t, .u {
        opacity: .5;
      }

      .t, .v {
        fill: #fff;
      }

      .u {
        fill: url(#l);
      }

      .w {
        fill: url(#d);
      }

      .x {
        fill: url(#q);
      }

      .y {
        fill: url(#m);
      }

      .z {
        fill: url(#o);
      }

      .aa {
        fill: url(#p);
      }

      .ab {
        fill: url(#k);
      }

      .ac {
        fill: url(#n);
      }
    </style>
    <linearGradient id="d" x1="183.572" y1="562.331" x2="1007.09" y2="453.441" gradientUnits="userSpaceOnUse">
      <stop offset="0" stop-color="#00a99d"/>
      <stop offset=".182" stop-color="#00a599"/>
      <stop offset=".336" stop-color="#009b90"/>
      <stop offset=".48" stop-color="#00897f"/>
      <stop offset=".619" stop-color="#007068"/>
      <stop offset=".753" stop-color="#00504b"/>
      <stop offset=".882" stop-color="#002a27"/>
      <stop offset="1" stop-color="#000"/>
    </linearGradient>
    <linearGradient id="k" data-name="White, Black" x1="181.853" y1="514.544" x2="865.831" y2="514.544" gradientUnits="userSpaceOnUse">
      <stop offset="0" stop-color="#fff"/>
      <stop offset="1" stop-color="#000"/>
    </linearGradient>
    <linearGradient id="l" data-name="AB Green Black" x1="336.083" y1="510.152" x2="697.343" y2="510.152" gradientUnits="userSpaceOnUse">
      <stop offset="0" stop-color="#00a99d"/>
      <stop offset="1" stop-color="#000"/>
    </linearGradient>
    <linearGradient id="m" data-name="AB Green Black" x1="374.244" y1="470.381" x2="402.555" y2="470.381" xlink:href="#l"/>
    <linearGradient id="n" data-name="AB Green Black" x1="362.539" y1="451.731" x2="370.082" y2="451.731" xlink:href="#l"/>
    <linearGradient id="o" data-name="AB Green Black" x1="374.244" y1="451.696" x2="402.555" y2="451.696" xlink:href="#l"/>
    <linearGradient id="p" data-name="AB Green Black" x1="365.869" y1="430.602" x2="403.176" y2="430.602" xlink:href="#l"/>
    <linearGradient id="q" data-name="AB Green Black" x1="374.244" y1="401.122" x2="403.176" y2="401.122" xlink:href="#l"/>
  </defs>
  <g id="c" data-name="Layer 1">
    <g>
      <ellipse class="w" cx="521.551" cy="517.641" rx="521.551" ry="517.641"/>
      <ellipse class="v" cx="518.523" cy="516.594" rx="394.588" ry="404.718"/>
      <path class="v" d="M62.022,527.956c-23.465-.628-42.348-19.918-42.348-43.531,0-23.982,19.474-43.494,43.457-43.568h.111c1.219,0,2.402.037,3.584.148,22.356,1.848,39.946,20.62,39.946,43.42,0,23.207-18.181,42.2-41.055,43.494"/>
      <g id="e" data-name="Right Side Cricle">
        <path class="v" d="M1024.403,487.39c0,22.394-16.962,40.907-38.764,43.309-1.22.148-2.476.222-3.732.222-.333.037-.702.037-1.035.037-24.019,0-43.568-19.548-43.568-43.568s19.511-43.531,43.494-43.568h.074c1.219,0,2.439.037,3.658.185,22.32,1.848,39.872,20.583,39.872,43.383Z"/>
      </g>
      <g id="f" data-name="Top Left 2 Circle">
        <path class="v" d="M272.164,137.59c0,8.166-6.651,14.781-14.818,14.781-4.028,0-7.686-1.626-10.384-4.25-.85-.887-1.626-1.848-2.291-2.919-1.33-2.217-2.107-4.804-2.107-7.612,0-8.167,6.652-14.781,14.781-14.781,4.176,0,7.945,1.737,10.643,4.508.887.887,1.626,1.885,2.217,2.993,1.257,2.143,1.959,4.619,1.959,7.28Z"/>
      </g>
      <g id="g" data-name="Top Right 2 Circle">
        <path class="v" d="M778.834,127.998c0,1.848-.332,3.658-.998,5.284-.443,1.183-1.034,2.291-1.774,3.326-2.661,3.732-7.058,6.171-12.01,6.171-8.166,0-14.781-6.652-14.781-14.781,0-3.548,1.257-6.799,3.289-9.349.813-.998,1.737-1.848,2.771-2.587,2.439-1.811,5.432-2.882,8.72-2.882,8.166,0,14.781,6.651,14.781,14.818Z"/>
      </g>
      <g id="h" data-name="Top Left Circle">
        <path class="v" d="M435.958,66.512c0,.111,0,.259-.037.369-.148,7.169-6.06,12.971-13.303,12.971-5.247,0-9.793-3.03-11.973-7.391-.555-1.072-.961-2.254-1.183-3.511-.148-.776-.222-1.589-.222-2.439,0-7.391,5.987-13.377,13.377-13.377,6.208,0,11.455,4.286,12.934,10.051.258,1.072.406,2.18.406,3.326Z"/>
      </g>
      <g id="i" data-name="Top Right Circle">
        <path class="v" d="M628.216,66.512c0,1.146-.148,2.254-.406,3.289-.296,1.219-.776,2.402-1.404,3.437h-.037c-2.291,3.954-6.577,6.615-11.492,6.615-6.984,0-12.749-5.432-13.266-12.268-.074-.369-.074-.702-.074-1.072,0-.924.074-1.811.258-2.661,1.22-6.097,6.652-10.716,13.082-10.716,7.354,0,13.34,5.986,13.34,13.377Z"/>
      </g>
      <g id="j" data-name="Top Middle Circle">
        <path class="v" d="M543.374,56.715v.37c0,13.709-11.159,24.869-24.832,24.869s-24.869-11.16-24.869-24.869v-.185c0-1.257.111-2.513.37-3.732,1.811-11.862,12.121-20.953,24.499-20.953,12.269,0,22.542,9.017,24.463,20.768.221,1.219.332,2.476.369,3.732Z"/>
      </g>
      <rect class="ab" x="181.853" y="161.396" width="683.977" height="706.295" rx="341.988" ry="341.988"/>
      <circle class="ad" cx="518.973" cy="518.966" r="461.882"/>
      <g>
        <rect class="t" x="310.204" y="301.094" width="416.371" height="427.073" rx="22.918" ry="22.918"/>
        <ellipse class="s" cx="520.33" cy="518.575" rx="463.58" ry="455.84"/>
        <rect class="u" x="336.083" y="323.03" width="361.26" height="374.244" rx="10.025" ry="10.025"/>
        <path class="r" d="M334.437,774.333c0,16.943-13.707,30.65-30.65,30.65s-30.65-13.707-30.65-30.65,13.731-30.65,30.65-30.65,30.65,13.731,30.65,30.65Z"/>
        <path class="v" d="M298.883,722.008c-28.885,0-52.326,23.441-52.326,52.326s23.441,52.35,52.326,52.35,52.35-23.441,52.35-52.35-23.441-52.326-52.35-52.326ZM298.883,804.983c-16.919,0-30.65-13.707-30.65-30.65s13.731-30.65,30.65-30.65,30.65,13.731,30.65,30.65-13.707,30.65-30.65,30.65Z"/>
        <path class="v" d="M740.147,721.103c-28.885,0-52.326,23.441-52.326,52.326s23.441,52.35,52.326,52.35,52.35-23.441,52.35-52.35-23.441-52.326-52.35-52.326ZM740.147,804.079c-16.919,0-30.65-13.707-30.65-30.65s13.731-30.65,30.65-30.65,30.65,13.731,30.65,30.65-13.707,30.65-30.65,30.65Z"/>
        <path class="r" d="M334.437,774.333c0,16.943-13.707,30.65-30.65,30.65s-30.65-13.707-30.65-30.65,13.731-30.65,30.65-30.65,30.65,13.731,30.65,30.65Z"/>
        <path class="v" d="M351.048,253.008c0-28.909-23.441-52.35-52.35-52.35s-52.326,23.441-52.326,52.35,23.441,52.326,52.326,52.326,52.35-23.441,52.35-52.326ZM329.348,253.008c0,16.919-13.707,30.65-30.65,30.65s-30.65-13.731-30.65-30.65,13.731-30.65,30.65-30.65,30.65,13.707,30.65,30.65Z"/>
        <path class="v" d="M792.312,253.913c0-28.909-23.441-52.35-52.35-52.35s-52.326,23.441-52.326,52.35,23.441,52.326,52.326,52.326,52.35-23.441,52.35-52.326ZM770.612,253.913c0,16.919-13.707,30.65-30.65,30.65s-30.65-13.731-30.65-30.65,13.731-30.65,30.65-30.65,30.65,13.707,30.65,30.65Z"/>
        <circle class="v" cx="291.228" cy="356.744" r="12.26"/>
        <circle class="v" cx="291.228" cy="385.535" r="12.26"/>
        <circle class="v" cx="291.228" cy="414.326" r="12.26"/>
        <circle class="v" cx="291.228" cy="443.117" r="12.26"/>
        <circle class="v" cx="291.228" cy="471.908" r="12.26"/>
        <circle class="v" cx="291.228" cy="500.699" r="12.26"/>
        <circle class="v" cx="291.228" cy="529.49" r="12.26"/>
        <circle class="v" cx="291.228" cy="558.28" r="12.26"/>
        <circle class="v" cx="291.228" cy="587.071" r="12.26"/>
        <circle class="v" cx="291.228" cy="615.862" r="12.26"/>
        <circle class="v" cx="291.228" cy="644.653" r="12.26"/>
        <circle class="v" cx="291.228" cy="673.444" r="12.26"/>
        <circle class="v" cx="482.552" cy="932.75" r="12.26"/>
        <circle class="v" cx="517.646" cy="904.901" r="12.26"/>
        <circle class="v" cx="552.744" cy="932.75" r="12.26"/>
        <circle class="v" cx="379.291" cy="745.889" r="12.26"/>
        <circle class="v" cx="413.22" cy="745.889" r="12.26"/>
        <circle class="v" cx="447.149" cy="745.889" r="12.26"/>
        <circle class="v" cx="481.078" cy="745.889" r="12.26"/>
        <circle class="v" cx="515.007" cy="745.889" r="12.26"/>
        <circle class="v" cx="548.936" cy="745.889" r="12.26"/>
        <circle class="v" cx="582.865" cy="745.889" r="12.26"/>
        <circle class="v" cx="616.794" cy="745.889" r="12.26"/>
        <circle class="v" cx="650.723" cy="745.889" r="12.26"/>
        <circle class="v" cx="373.69" cy="281.024" r="12.26"/>
        <circle class="v" cx="407.619" cy="281.024" r="12.26"/>
        <circle class="v" cx="441.548" cy="281.024" r="12.26"/>
        <circle class="v" cx="475.477" cy="281.024" r="12.26"/>
        <circle class="v" cx="509.406" cy="281.024" r="12.26"/>
        <circle class="v" cx="543.335" cy="281.024" r="12.26"/>
        <circle class="v" cx="577.264" cy="281.024" r="12.26"/>
        <circle class="v" cx="611.193" cy="281.024" r="12.26"/>
        <circle class="v" cx="645.122" cy="281.024" r="12.26"/>
        <circle class="v" cx="742.418" cy="351.898" r="12.26"/>
        <circle class="v" cx="742.418" cy="380.689" r="12.26"/>
        <circle class="v" cx="742.418" cy="409.48" r="12.26"/>
        <circle class="v" cx="742.418" cy="438.271" r="12.26"/>
        <circle class="v" cx="742.418" cy="467.062" r="12.26"/>
        <circle class="v" cx="742.418" cy="495.853" r="12.26"/>
        <circle class="v" cx="742.418" cy="524.644" r="12.26"/>
        <circle class="v" cx="742.418" cy="553.435" r="12.26"/>
        <circle class="v" cx="742.418" cy="582.226" r="12.26"/>
        <circle class="v" cx="742.418" cy="611.017" r="12.26"/>
        <circle class="v" cx="742.418" cy="639.808" r="12.26"/>
        <circle class="v" cx="742.418" cy="668.599" r="12.26"/>
        <rect class="v" x="509.406" y="778.705" width="16.481" height="130.102" rx=".921" ry=".921"/>
        <rect class="v" x="475.477" y="770.495" width="14.15" height="165.689" rx=".791" ry=".791"/>
        <rect class="v" x="544.335" y="770.495" width="13.995" height="165.689" rx=".782" ry=".782"/>
        <g>
          <circle class="v" cx="940.87" cy="496.952" r="12.26"/>
          <rect class="v" x="849.921" y="414.107" width="13.995" height="165.689" rx=".782" ry=".782" transform="translate(359.966 1353.871) rotate(-90)"/>
        </g>
        <g>
          <circle class="v" cx="940.87" cy="526.891" r="12.26"/>
          <rect class="v" x="849.921" y="444.046" width="13.995" height="165.689" rx=".782" ry=".782" transform="translate(330.028 1383.809) rotate(-90)"/>
        </g>
        <g>
          <ellipse class="v" cx="885.122" cy="351.356" rx="8.774" ry="12.26"/>
          <rect class="v" x="818.041" y="292.066" width="13.995" height="118.58" rx=".782" ry=".782" transform="translate(473.683 1176.395) rotate(-90)"/>
        </g>
        <g>
          <ellipse class="v" cx="885.122" cy="381.294" rx="8.774" ry="12.26"/>
          <rect class="v" x="818.041" y="322.004" width="13.995" height="118.58" rx=".782" ry=".782" transform="translate(443.745 1206.333) rotate(-90)"/>
        </g>
        <g>
          <ellipse class="v" cx="885.122" cy="639.572" rx="8.774" ry="12.26"/>
          <rect class="v" x="818.041" y="580.282" width="13.995" height="118.58" rx=".782" ry=".782" transform="translate(185.467 1464.611) rotate(-90)"/>
        </g>
        <g>
          <ellipse class="v" cx="885.122" cy="669.51" rx="8.774" ry="12.26"/>
          <rect class="v" x="818.041" y="610.22" width="13.995" height="118.58" rx=".782" ry=".782" transform="translate(155.529 1494.549) rotate(-90)"/>
        </g>
        <g>
          <ellipse class="v" cx="143.307" cy="644.219" rx="8.774" ry="12.26"/>
          <rect class="v" x="196.392" y="584.929" width="13.995" height="118.58" rx=".782" ry=".782" transform="translate(-440.83 847.609) rotate(-90)"/>
        </g>
        <g>
          <ellipse class="v" cx="143.307" cy="674.158" rx="8.774" ry="12.26"/>
          <rect class="v" x="196.392" y="614.868" width="13.995" height="118.58" rx=".782" ry=".782" transform="translate(-470.768 877.548) rotate(-90)"/>
        </g>
        <g>
          <ellipse class="v" cx="143.689" cy="357.611" rx="8.774" ry="12.26"/>
          <rect class="v" x="196.774" y="298.321" width="13.995" height="118.58" rx=".782" ry=".782" transform="translate(-153.84 561.383) rotate(-90)"/>
        </g>
        <g>
          <ellipse class="v" cx="143.689" cy="387.55" rx="8.774" ry="12.26"/>
          <rect class="v" x="196.774" y="328.26" width="13.995" height="118.58" rx=".782" ry=".782" transform="translate(-183.778 591.321) rotate(-90)"/>
        </g>
        <g>
          <circle class="v" cx="97.011" cy="498.702" r="12.26"/>
          <rect class="v" x="173.965" y="415.857" width="13.995" height="165.689" rx=".782" ry=".782" transform="translate(-317.739 679.664) rotate(-90)"/>
        </g>
        <g>
          <circle class="v" cx="97.011" cy="528.64" r="12.26"/>
          <rect class="v" x="173.965" y="445.795" width="13.995" height="165.689" rx=".782" ry=".782" transform="translate(-347.677 709.603) rotate(-90)"/>
        </g>
        <rect class="v" x="501.908" y="96.757" width="16.481" height="130.102" rx=".921" ry=".921"/>
        <rect class="v" x="569.023" y="147.87" width="16.481" height="130.102" rx=".921" ry=".921"/>
        <rect class="v" x="602.952" y="149.533" width="16.481" height="130.102" rx=".921" ry=".921"/>
        <rect class="v" x="636.881" y="150.538" width="16.481" height="130.102" rx=".921" ry=".921"/>
        <rect class="v" x="365.449" y="145.968" width="16.481" height="130.102" rx=".921" ry=".921"/>
        <rect class="v" x="399.378" y="147.63" width="16.481" height="130.102" rx=".921" ry=".921"/>
        <rect class="v" x="433.307" y="148.635" width="16.481" height="130.102" rx=".921" ry=".921"/>
        <rect class="v" x="574.625" y="743.547" width="16.481" height="130.102" rx=".921" ry=".921"/>
        <rect class="v" x="608.554" y="745.209" width="16.481" height="130.102" rx=".921" ry=".921"/>
        <rect class="v" x="642.483" y="746.214" width="16.481" height="130.102" rx=".921" ry=".921"/>
        <rect class="v" x="798.901" y="546.216" width="16.481" height="130.102" rx=".921" ry=".921" transform="translate(195.874 1418.409) rotate(-90)"/>
        <rect class="v" x="798.901" y="517.175" width="16.481" height="130.102" rx=".921" ry=".921" transform="translate(224.915 1389.368) rotate(-90)"/>
        <rect class="v" x="801.568" y="488.091" width="16.481" height="130.102" rx=".921" ry=".921" transform="translate(256.666 1362.951) rotate(-90)"/>
        <rect class="v" x="800.235" y="403.334" width="16.481" height="130.102" rx=".921" ry=".921" transform="translate(340.09 1276.861) rotate(-90)"/>
        <rect class="v" x="800.235" y="374.293" width="16.481" height="130.102" rx=".921" ry=".921" transform="translate(369.131 1247.819) rotate(-90)"/>
        <rect class="v" x="802.902" y="345.21" width="16.481" height="130.102" rx=".921" ry=".921" transform="translate(400.882 1221.403) rotate(-90)"/>
        <rect class="v" x="213.935" y="551.793" width="16.481" height="130.102" rx=".921" ry=".921" transform="translate(-394.668 839.019) rotate(-90)"/>
        <rect class="v" x="213.935" y="522.751" width="16.481" height="130.102" rx=".921" ry=".921" transform="translate(-365.627 809.978) rotate(-90)"/>
        <rect class="v" x="216.602" y="493.668" width="16.481" height="130.102" rx=".921" ry=".921" transform="translate(-333.876 783.562) rotate(-90)"/>
        <rect class="v" x="215.269" y="407.128" width="16.481" height="130.102" rx=".921" ry=".921" transform="translate(-248.67 695.688) rotate(-90)"/>
        <rect class="v" x="215.269" y="378.087" width="16.481" height="130.102" rx=".921" ry=".921" transform="translate(-219.628 666.647) rotate(-90)"/>
        <rect class="v" x="217.936" y="349.003" width="16.481" height="130.102" rx=".921" ry=".921" transform="translate(-187.877 640.231) rotate(-90)"/>
        <rect class="v" x="371.051" y="741.645" width="16.481" height="130.102" rx=".921" ry=".921"/>
        <rect class="v" x="404.98" y="743.307" width="16.481" height="130.102" rx=".921" ry=".921"/>
        <rect class="v" x="438.909" y="744.312" width="16.481" height="130.102" rx=".921" ry=".921"/>
        <rect class="v" x="467.979" y="88.548" width="14.15" height="165.689" rx=".791" ry=".791"/>
        <rect class="v" x="536.837" y="88.548" width="13.995" height="165.689" rx=".782" ry=".782"/>
        <g>
          <g>
            <g>
              <g>
                <polygon class="v" points="366.334 446.669 370.082 451.698 366.334 456.793 362.539 451.698 366.334 446.669"/>
                <polygon class="v" points="374.244 448.066 402.555 448.066 402.555 455.327 375.702 455.327 374.244 448.345 374.244 448.066"/>
                <path class="v" d="M382.997,473.979h19.558v7.265h-26.853l-1.458-6.848v-.279h7.14c-1.236-.716-2.332-1.543-3.288-2.477-1.215-1.19-2.151-2.542-2.807-4.053-.662-1.512-.993-3.131-.993-4.857,0-1.022.103-2.094.315-3.211l4.213,2.098c-.45,1.213-.677,2.492-.677,3.843,0,1.301.243,2.549.729,3.736.486,1.187,1.153,2.212,2.001,3.07.652.662,1.36,1.233,2.12,1.715Z"/>
                <path class="v" d="M402.529,423.163c.429,1.562.646,3.296.646,5.206,0,3.816-.729,6.319-2.187,7.506-1.453,1.187-3.118,1.784-4.994,1.784h-19.977v5.236h-.889l-.258-5.026-9.001-7.196v-.279h9.001v-11.805l1.148.907v10.897h20.085c1.349,0,2.554-.348,3.614-1.049,1.06-.697,1.587-2.212,1.587-4.54,0-.884-.104-1.83-.315-2.829-.207-1.003-.533-2.036-.988-3.108l.626-.559c.832,1.677,1.468,3.296,1.903,4.853Z"/>
                <path class="v" d="M376.09,409.02c-1.23-2.886-1.846-6.147-1.846-9.78,0-3.353.532-6.182,1.587-8.49,1.06-2.304,2.533-4.023,4.426-5.167,1.892-1.137,4.069-1.665,6.53-1.569v26.526c.258.011.517.015.781.015,2.843,0,5.258-.559,7.233-1.677s3.469-2.664,4.472-4.647c1.008-1.975,1.51-4.222,1.51-6.737,0-2.235-.413-4.459-1.246-6.672-.832-2.212-2.047-4.088-3.645-5.623l.367-.838c2.29,2.002,4.012,4.39,5.175,7.162,1.163,2.771,1.742,5.807,1.742,9.114,0,3.353-.579,6.369-1.742,9.045-1.163,2.679-2.802,4.773-4.917,6.285-2.114,1.516-4.56,2.274-7.336,2.274-2.983,0-5.604-.815-7.858-2.446-2.254-1.631-3.996-3.889-5.232-6.775Z"/>
                <path class="v" d="M645.39,445.31c-10.671-5.741-23.896-10.028-39.675-12.861-.357,5.918-.631,12.092-.822,18.514,13.313,11.54,19.972,27.192,19.972,46.962,0,13.29-3.019,24.731-9.047,34.311-3.407,5.42-7.781,10.124-13.111,14.113-1.111,6.032-2.73,11.732-4.849,17.087,7.445-1.366,14.46-3.104,21.047-5.217,18.684-5.99,33.031-14.488,43.035-25.488,10.004-11.001,15.014-23.908,15.014-38.728,0-21.129-10.526-37.358-31.563-48.692Z"/>
              </g>
              <polygon class="v" points="366.334 446.669 370.082 451.698 366.334 456.793 362.539 451.698 366.334 446.669"/>
              <polygon class="v" points="374.244 448.066 402.555 448.066 402.555 455.327 375.702 455.327 374.244 448.345 374.244 448.066"/>
              <path class="v" d="M382.997,473.979h19.558v7.265h-26.853l-1.458-6.848v-.279h7.14c-1.236-.716-2.332-1.543-3.288-2.477-1.215-1.19-2.151-2.542-2.807-4.053-.662-1.512-.993-3.131-.993-4.857,0-1.022.103-2.094.315-3.211l4.213,2.098c-.45,1.213-.677,2.492-.677,3.843,0,1.301.243,2.549.729,3.736.486,1.187,1.153,2.212,2.001,3.07.652.662,1.36,1.233,2.12,1.715Z"/>
              <path class="v" d="M402.529,423.163c.429,1.562.646,3.296.646,5.206,0,3.816-.729,6.319-2.187,7.506-1.453,1.187-3.118,1.784-4.994,1.784h-19.977v5.236h-.889l-.258-5.026-9.001-7.196v-.279h9.001v-11.805l1.148.907v10.897h20.085c1.349,0,2.554-.348,3.614-1.049,1.06-.697,1.587-2.212,1.587-4.54,0-.884-.104-1.83-.315-2.829-.207-1.003-.533-2.036-.988-3.108l.626-.559c.832,1.677,1.468,3.296,1.903,4.853Z"/>
              <path class="v" d="M376.09,409.02c-1.23-2.886-1.846-6.147-1.846-9.78,0-3.353.532-6.182,1.587-8.49,1.06-2.304,2.533-4.023,4.426-5.167,1.892-1.137,4.069-1.665,6.53-1.569v26.526c.258.011.517.015.781.015,2.843,0,5.258-.559,7.233-1.677s3.469-2.664,4.472-4.647c1.008-1.975,1.51-4.222,1.51-6.737,0-2.235-.413-4.459-1.246-6.672-.832-2.212-2.047-4.088-3.645-5.623l.367-.838c2.29,2.002,4.012,4.39,5.175,7.162,1.163,2.771,1.742,5.807,1.742,9.114,0,3.353-.579,6.369-1.742,9.045-1.163,2.679-2.802,4.773-4.917,6.285-2.114,1.516-4.56,2.274-7.336,2.274-2.983,0-5.604-.815-7.858-2.446-2.254-1.631-3.996-3.889-5.232-6.775Z"/>
            </g>
            <g>
              <path class="y" d="M402.555,473.979v7.265h-26.853l-1.458-6.848v-.279h7.14c-1.236-.716-2.332-1.543-3.288-2.477-1.215-1.19-2.151-2.542-2.807-4.053-.662-1.512-.993-3.131-.993-4.857,0-1.022.103-2.094.315-3.211l4.213,2.098c-.45,1.213-.677,2.492-.677,3.843,0,1.301.243,2.549.729,3.736.486,1.187,1.153,2.212,2.001,3.07.652.662,1.36,1.233,2.12,1.715h19.558Z"/>
              <polygon class="ac" points="370.082 451.698 366.334 456.793 362.539 451.698 366.334 446.669 370.082 451.698"/>
              <polygon class="z" points="402.555 448.066 402.555 455.327 375.702 455.327 374.244 448.345 374.244 448.066 402.555 448.066"/>
              <path class="aa" d="M403.176,428.369c0,3.816-.729,6.319-2.187,7.506-1.453,1.187-3.118,1.784-4.994,1.784h-19.977v5.236h-.889l-.258-5.026-9.001-7.196v-.279h9.001v-11.805l1.148.907v10.897h20.085c1.349,0,2.554-.348,3.614-1.049,1.06-.697,1.587-2.212,1.587-4.54,0-.884-.104-1.83-.315-2.829-.207-1.003-.533-2.036-.988-3.108l.626-.559c.832,1.677,1.468,3.296,1.903,4.853.429,1.562.646,3.296.646,5.206Z"/>
              <path class="x" d="M401.433,391.524c-1.163-2.771-2.885-5.16-5.175-7.162l-.367.838c1.598,1.535,2.813,3.41,3.645,5.623.832,2.212,1.246,4.436,1.246,6.672,0,2.515-.501,4.762-1.51,6.737-1.003,1.983-2.497,3.529-4.472,4.647s-4.389,1.677-7.233,1.677c-.264,0-.522-.004-.781-.015v-26.526c-2.461-.096-4.638.433-6.53,1.569-1.892,1.144-3.366,2.863-4.426,5.167-1.055,2.308-1.587,5.137-1.587,8.49,0,3.632.615,6.894,1.846,9.78,1.236,2.886,2.978,5.144,5.232,6.775,2.254,1.631,4.875,2.446,7.858,2.446,2.776,0,5.222-.758,7.336-2.274,2.115-1.512,3.754-3.606,4.917-6.285,1.163-2.676,1.742-5.692,1.742-9.045,0-3.307-.579-6.342-1.742-9.114ZM385.954,410.482c-1.758-.161-3.371-.589-4.839-1.286-1.907-.911-3.402-2.178-4.477-3.809s-1.613-3.495-1.613-5.588c0-1.91.46-3.575,1.38-4.995.92-1.42,2.228-2.48,3.929-3.177,1.634-.674,3.505-.934,5.62-.785v19.64Z"/>
            </g>
            <polygon class="v" points="643.828 584.813 637.552 595.863 629.244 593.326 622.471 591.263 625.315 586.26 628.84 580.055 643.828 584.813"/>
          </g>
          <polygon class="v" points="682.707 664.277 669.471 668.273 667.383 668.901 645.529 629.243 636.378 612.634 637.981 611.716 637.981 611.708 646.667 606.717 649.422 605.136 650.017 604.956 650.978 606.701 663.366 629.177 682.707 664.277"/>
          <path class="v" d="M639.47,629.266l-9.906-17.982,1.592-.915-1.99-3.579-4.224-7.59-9.849-3.009,4.131-7.265-4.322-7.763h-.636l-14.367,25.741-12.589,22.556-1.044,1.872-5.087,8.834c-2.973,5.259-5.806,10.17-8.51,14.721-2.704,4.555-5.646,9.225-8.83,14.013h11.932c.212-4.628,1.215-9.653,3.019-15.07,1.179-3.548,3.092-7.866,5.723-12.96h44.421l15.391,28.03h16.983l-21.838-39.635ZM585.625,638.754c1.117-2.078,2.337-4.279,3.665-6.595l1.499-2.71,12.496-22.56,3.51-6.331,3.464,6.304,12.336,22.468,5.175,9.424h-42.146Z"/>
          <path class="v" d="M633.39,399.445h-39.064c-1.024,6.978-1.887,14.48-2.575,22.51-.305,3.571-.579,7.25-.817,11.031-.238,3.721-.445,7.537-.615,11.456-.186,4.375-.341,8.88-.45,13.508-.145,6.281-.222,12.792-.222,19.533v50.452c0,5.5-.351,10.744-1.054,15.728-.724,5.164-1.83,10.048-3.314,14.656-1.143,3.552-2.507,6.943-4.1,10.166-2.068,4.187-4.513,8.092-7.347,11.716-3.417,4.39-7.393,8.371-11.922,11.935-8.179,6.438-18.312,11.449-30.394,15.039-.982.291-1.98.574-2.988.85v-8.111c11.648-3.108,21.538-8.019,29.665-14.733,1.701-1.405,3.298-2.882,4.808-4.436,3.345-3.445,6.219-7.269,8.628-11.46,1.453-2.534,2.735-5.198,3.841-8.007,1.618-4.065,2.869-8.413,3.769-13.052,1.111-5.78,1.67-12,1.67-18.671v-52.072c0-8.536-.119-16.704-.357-24.501-.129-4.214-.3-8.318-.496-12.314-.145-2.97-.315-5.883-.502-8.739-.248-3.812-.532-7.518-.853-11.119-.672-7.598-1.494-14.721-2.476-21.366h-37.115l47.14-60.446,47.14,60.446Z"/>
          <path class="v" d="M543.649,564.658c5.17,0,10.102-.214,14.781-.639-1.127,2.067-2.378,4.019-3.759,5.856-.729.008-1.463.008-2.197.008-7.651,0-15.665-.268-24.051-.815-5.811-.375-10.743-.781-14.786-1.21v101.043h-49.441v-237.901h88.278c4.141,0,8.179.057,12.113.176.14,2.082.274,4.195.393,6.346-6.313-.865-13.132-1.294-20.453-1.294h-30.891v125.926c3.588.678,7.636,1.24,12.134,1.684,5.444.547,11.405.819,17.878.819Z"/>
          <path class="v" d="M430.416,584.7c-14.709-12.827-22.066-31.75-22.066-56.764v-153.302h-48.924v153.627c0,18.327,4.368,33.909,13.106,46.736,8.737,12.83,21.765,22.533,39.101,29.109,3.412,1.298,6.995,2.465,10.743,3.502,8.179,2.274,17.154,3.935,26.925,4.991v-16.359c-7.191-2.978-13.483-6.829-18.886-11.54ZM366.334,459.474l-3.795-5.095,3.795-5.03,3.748,5.03-3.748,5.095ZM402.555,483.925h-26.853l-1.458-6.848v-.279h7.14c-1.236-.716-2.332-1.543-3.288-2.477-1.215-1.19-2.151-2.542-2.807-4.053-.662-1.512-.993-3.131-.993-4.857,0-1.022.103-2.094.315-3.211l4.213,2.098c-.45,1.213-.677,2.492-.677,3.843,0,1.301.243,2.549.729,3.736.486,1.187,1.153,2.212,2.001,3.07.652.662,1.36,1.233,2.12,1.715h19.558v7.265ZM402.555,458.008h-26.853l-1.458-6.982v-.279h28.311v7.261ZM400.989,438.556c-1.453,1.187-3.118,1.784-4.994,1.784h-19.977v5.236h-.889l-.258-5.026-9.001-7.196v-.279h9.001v-11.805l1.148.907v10.897h20.085c1.349,0,2.554-.348,3.614-1.049,1.06-.697,1.587-2.212,1.587-4.54,0-.884-.104-1.83-.315-2.829-.207-1.003-.533-2.036-.988-3.108l.626-.559c.832,1.677,1.468,3.296,1.903,4.853.429,1.562.646,3.296.646,5.206,0,3.816-.729,6.319-2.187,7.506ZM401.433,412.363c-1.163,2.679-2.802,4.773-4.917,6.285-2.114,1.516-4.56,2.274-7.336,2.274-2.983,0-5.604-.815-7.858-2.446-2.254-1.631-3.996-3.889-5.232-6.775-1.23-2.886-1.846-6.147-1.846-9.78,0-3.353.532-6.182,1.587-8.49,1.06-2.304,2.533-4.023,4.426-5.167,1.892-1.137,4.069-1.665,6.53-1.569v26.526c.258.011.517.015.781.015,2.843,0,5.258-.559,7.233-1.677s3.469-2.664,4.472-4.647c1.008-1.975,1.51-4.222,1.51-6.737,0-2.235-.413-4.459-1.246-6.672-.832-2.212-2.047-4.088-3.645-5.623l.367-.838c2.29,2.002,4.012,4.39,5.175,7.162,1.163,2.771,1.742,5.807,1.742,9.114,0,3.353-.579,6.369-1.742,9.045Z"/>
        </g>
      </g>
      <circle class="v" cx="475.477" cy="92.194" r="12.341"/>
      <circle class="v" cx="507.153" cy="103.984" r="12.341"/>
      <circle class="v" cx="543.374" cy="96.915" r="12.341"/>
    </g>
  </g>
</svg>