<?xml version="1.0" encoding="UTF-8"?>
<svg id="a" data-name="Layer_1" xmlns="http://www.w3.org/2000/svg" viewBox="0 0 386.282 386.282">
  <defs>
    <style>
      .c {
        fill: #001311;
      }

      .d {
        fill: #fff;
      }

      .e {
        opacity: .14;
      }
    </style>
  </defs>
  <circle class="d" cx="193.141" cy="193.141" r="193.141"/>
  <g>
    <path class="c" d="M197.555,199.97l7.267,3.263,5.117,2.447c7.264,3.415,13.533,7.008,18.8,10.79,5.262,3.782,9.567,8.532,12.904,14.239,3.337,5.712,5.006,12.57,5.006,20.58,0,1.644-.1,3.243-.247,4.82,6.622-3.682,11.681-9.02,15.169-16.026,3.515-7.055,5.272-15.617,5.272-25.686,0-9.256-1.9-17.37-5.69-24.338-3.795-6.964-9.18-12.405-16.15-16.315-6.975-3.91-15.146-5.865-24.518-5.865h-7.556l-15.373,15.373v16.718Z"/>
    <path class="c" d="M213.164,236.272c-4.209-2.823-9.421-5.685-15.61-8.576v32.866c2.138.361,4.954.634,8.452.826,4.071.226,9.397.337,15.983.337,2.578,0,5.043-.148,7.415-.421-.397-5.118-1.949-9.645-4.671-13.574-3.193-4.594-7.047-8.415-11.569-11.458Z"/>
    <path class="c" d="M191.472,134.708c-6.675,0-12.426,1.263-17.242,3.782-4.822,2.525-8.532,5.935-11.124,10.234-2.598,4.305-3.893,8.977-3.893,14.016,0,5.785,1.479,10.791,4.45,15.018,2.88,4.107,6.47,7.547,10.753,10.32l4.396-4.396v-17.961h17.961l22.772-22.771c-1.212-.732-2.441-1.447-3.708-2.125-7.642-4.077-15.763-6.118-24.362-6.118Z"/>
    <path class="c" d="M193.141,0C86.472,0,0,86.472,0,193.141s86.472,193.141,193.141,193.141,193.141-86.472,193.141-193.141S299.81,0,193.141,0ZM59.175,312.751l30.13-40.482,10.352,10.352-40.482,30.13ZM102.883,278.546l-9.468-9.468,8.234-8.234,9.468,9.468-8.234,8.234ZM124.769,280.111c-3.84,0-6.953-3.113-6.953-6.953s3.113-6.953,6.953-6.953,6.953,3.113,6.953,6.953-3.113,6.953-6.953,6.953ZM297.563,131.949c-4.071,4.071-7.525,8.303-10.217,12.381-1.832,2.779-3.31,5.473-4.4,8.006-1.326,3.066-2.061,5.88-2.169,8.279-1.01-1.083-1.882-2.248-2.616-3.494l-.064.064-27.238-27.238-12.341,12.341c.261.143.535.284.788.428l-3.56,13.349c-1.766-1.903-3.641-3.697-5.602-5.404l-15.06,15.06h6.905c13.054,0,24.518,1.844,34.393,5.528,9.874,3.688,17.514,9.125,22.929,16.315,5.41,7.193,8.117,15.958,8.117,26.293,0,10.429-2.761,19.396-8.284,26.899-5.523,7.507-13.473,13.237-23.849,17.191-3.03,1.156-6.231,2.121-9.565,2.939-1.064,5.379-3.051,10.339-5.978,14.875-4.6,7.12-11.052,12.682-19.356,16.686-8.31,4.005-17.877,6.007-28.7,6.007-6.23,0-12.721-.595-19.467-1.78-6.752-1.185-13.054-2.703-18.911-4.561-5.862-1.852-10.423-3.671-13.683-5.451l4.005-14.684c3.56,4.45,8.082,8.421,13.572,11.903,5.484,3.487,11.491,6.196,18.021,8.121,6.524,1.93,12.754,2.892,18.689,2.892,6.969,0,13.16-1.335,18.577-4.005,5.412-2.67,9.6-6.341,12.57-11.013,2.965-4.672,4.45-9.973,4.45-15.907,0-.174-.014-.341-.017-.514-3.442.277-6.999.425-10.691.425h-39.999v-44.779c-.229-.099-.451-.197-.687-.296-3.728-1.821-7.217-3.702-10.482-5.641l-53.486,53.486-9.157-9.157,51.783-51.783c-3.67-3.135-6.865-6.85-9.583-11.156-3.56-5.634-5.34-12.309-5.34-20.024,0-8.154,2.147-15.535,6.452-22.137,4.299-6.597,10.379-11.792,18.244-15.574,7.859-3.782,16.909-5.673,27.143-5.673,8.599,0,17.053,1.19,25.363,3.56,2.343.67,4.547,1.366,6.642,2.083l16-16-29.324-29.324.668-.668c4.091-.739,9.07-2.989,14.294-6.474,3.995-2.666,8.139-6.06,12.119-10.04,10.595-10.594,16.982-22.285,16.787-29.543,9.777,9.796,7.444,28.011-5.219,40.673-4.108,4.108-8.803,7.134-13.597,9.001l16.208,16.208,15.055-15.056-9-9,45.618-20.253-20.254,45.618-8.994-8.994-15.055,15.055,16.301,16.301c1.858-4.912,4.913-9.707,9.112-13.906,12.671-12.671,30.887-15.005,40.682-5.228-7.258-.195-18.949,6.193-29.543,16.787ZM261.065,156.432c0,3.84-3.113,6.953-6.953,6.953s-6.953-3.113-6.953-6.953,3.113-6.953,6.953-6.953,6.953,3.113,6.953,6.953Z"/>
  </g>
  <circle class="e" cx="191.902" cy="191.902" r="191.902"/>
</svg>