<?xml version="1.0" encoding="UTF-8"?>
<svg id="b" data-name="Layer_2" xmlns="http://www.w3.org/2000/svg" viewBox="0 0 267.932 268.01">
  <defs>
    <style>
      .d {
        fill: #fff;
      }
    </style>
  </defs>
  <g id="c" data-name="Layer_1">
    <g>
      <path class="d" d="M221.602,115.874c-1.01-1.083-1.882-2.248-2.616-3.494l-.064.064-27.238-27.238L54.98,221.911l-9.157-9.157L182.528,76.049l-29.324-29.324.668-.668c4.091-.739,9.07-2.989,14.294-6.474,3.995-2.666,8.139-6.06,12.119-10.04,10.595-10.595,16.982-22.286,16.787-29.543,9.777,9.796,7.444,28.011-5.219,40.673-4.108,4.108-8.803,7.134-13.597,9.001l39.881,39.881c1.858-4.912,4.913-9.707,9.112-13.907,12.671-12.671,30.887-15.005,40.682-5.228-7.258-.195-18.949,6.193-29.543,16.787-4.071,4.071-7.525,8.303-10.217,12.381-1.832,2.779-3.31,5.473-4.4,8.006-1.326,3.065-2.061,5.88-2.169,8.279Z"/>
      <rect class="d" x="37.269" y="218.259" width="11.645" height="13.39" transform="translate(-146.445 96.357) rotate(-45)"/>
      <polygon class="d" points="225.885 67.192 216.892 58.198 201.836 73.253 194.465 65.882 209.52 50.826 200.521 41.827 246.139 21.573 225.885 67.192"/>
      <polygon class="d" points="40.482 237.879 0 268.01 30.13 227.527 40.482 237.879"/>
    </g>
    <path class="d" d="M220.136,142.824c-5.414-7.19-13.054-12.627-22.929-16.315-9.874-3.684-21.339-5.528-34.393-5.528h-43.179v98.16h39.999c13.945,0,26.108-1.975,36.485-5.933,10.376-3.954,18.326-9.684,23.849-17.191,5.523-7.504,8.284-16.47,8.284-26.899,0-10.335-2.707-19.099-8.117-26.293ZM202.396,195.342c-3.515,7.059-8.619,12.428-15.314,16.113-6.694,3.688-14.786,5.528-24.267,5.528-6.586,0-11.912-.111-15.983-.337-3.498-.192-6.314-.465-8.452-.826v-92.682h22.929c9.372,0,17.544,1.955,24.518,5.865,6.971,3.91,12.355,9.351,16.15,16.315,3.791,6.968,5.69,15.081,5.69,24.338,0,10.069-1.757,18.631-5.272,25.686Z"/>
    <g>
      <path class="d" d="M187.473,206.548c0,9.2-2.303,17.354-6.897,24.473-4.6,7.119-11.052,12.682-19.356,16.686-8.31,4.005-17.877,6.007-28.7,6.007-6.23,0-12.721-.595-19.467-1.78-6.752-1.185-13.054-2.703-18.911-4.561-5.862-1.852-10.423-3.671-13.683-5.451l4.005-14.684c3.56,4.45,8.082,8.421,13.572,11.903,5.484,3.487,11.491,6.196,18.021,8.121,6.524,1.93,12.754,2.892,18.689,2.892,6.969,0,13.16-1.335,18.577-4.005,5.412-2.67,9.6-6.341,12.57-11.013,2.965-4.672,4.45-9.973,4.45-15.908,0-6.23-1.596-11.641-4.783-16.241-3.193-4.594-7.047-8.415-11.569-11.458-4.528-3.037-10.201-6.118-17.02-9.233-.745-.445-1.485-.812-2.225-1.112l-11.124-4.895c-1.335-.74-2.892-1.48-4.672-2.225-6.675-3.259-12.609-6.708-17.799-10.345-5.195-3.632-9.567-8.265-13.127-13.905-3.56-5.634-5.34-12.309-5.34-20.024,0-8.154,2.147-15.535,6.452-22.137,4.299-6.597,10.379-11.792,18.244-15.574,7.859-3.782,16.909-5.673,27.143-5.673,8.599,0,17.053,1.19,25.363,3.56,8.304,2.375,15.051,5.045,20.246,8.009l-3.56,13.349c-5.64-6.079-12.276-11.158-19.912-15.24-7.642-4.077-15.763-6.118-24.362-6.118-6.675,0-12.426,1.263-17.243,3.782-4.822,2.525-8.532,5.935-11.124,10.234-2.597,4.305-3.893,8.977-3.893,14.016,0,5.785,1.48,10.79,4.45,15.018,2.965,4.227,6.675,7.754,11.124,10.568,4.45,2.82,10.156,5.862,17.131,9.122l2.002.89,10.902,4.895,5.117,2.447c7.264,3.415,13.533,7.008,18.8,10.79,5.262,3.782,9.567,8.532,12.904,14.239,3.337,5.712,5.006,12.57,5.006,20.58Z"/>
      <circle class="d" cx="65.594" cy="228.417" r="6.953"/>
      <circle class="d" cx="194.938" cy="111.69" r="6.953"/>
    </g>
  </g>
</svg>