<?xml version="1.0" encoding="UTF-8"?>
<svg id="uuid-1701540c-7403-40ec-ba67-53cffa5bc396" data-name="Layer 2" xmlns="http://www.w3.org/2000/svg" xmlns:xlink="http://www.w3.org/1999/xlink" viewBox="0 0 775.92 759.6">
  <defs>
    <filter id="uuid-683b5657-b57c-4387-8369-a47ac7c38ec6" data-name="drop-shadow-1" x="0" y="0" width="775.92" height="759.6" filterUnits="userSpaceOnUse">
      <feOffset dx="-4.257" dy="-4.257"/>
      <feGaussianBlur result="uuid-d8b6517d-0c6f-4e5c-81d5-6e32902e1735" stdDeviation="4.257"/>
      <feFlood flood-color="#000202" flood-opacity=".75"/>
      <feComposite in2="uuid-d8b6517d-0c6f-4e5c-81d5-6e32902e1735" operator="in"/>
      <feComposite in="SourceGraphic"/>
    </filter>
    <filter id="uuid-de057765-a96a-4ac9-aa81-b07d53eabc8e" data-name="drop-shadow-2" x="0" y="0" width="775.92" height="759.84" filterUnits="userSpaceOnUse">
      <feOffset dx="-4.257" dy="-4.257"/>
      <feGaussianBlur result="uuid-7698d167-c76b-4e28-baf4-a71c65f47c2a" stdDeviation="4.257"/>
      <feFlood flood-color="#000202" flood-opacity=".75"/>
      <feComposite in2="uuid-7698d167-c76b-4e28-baf4-a71c65f47c2a" operator="in"/>
      <feComposite in="SourceGraphic"/>
    </filter>
    <filter id="uuid-c7a2b945-4358-4dd6-8f65-76cbfff4e833" data-name="drop-shadow-3" x="0" y="0" width="775.92" height="759.6" filterUnits="userSpaceOnUse">
      <feOffset dx="-4.257" dy="-4.257"/>
      <feGaussianBlur result="uuid-ea22336b-3d4d-4958-b72a-f245d0317130" stdDeviation="4.257"/>
      <feFlood flood-color="#000202" flood-opacity=".75"/>
      <feComposite in2="uuid-ea22336b-3d4d-4958-b72a-f245d0317130" operator="in"/>
      <feComposite in="SourceGraphic"/>
    </filter>
  </defs>
  <g id="uuid-b8e69969-bd0c-4889-8aa3-ea3262041f05" data-name="Ellipse">
    <g>
      <ellipse cx="392.168" cy="384.074" rx="375" ry="366.815" style="fill: #fff; filter: url(#uuid-683b5657-b57c-4387-8369-a47ac7c38ec6);"/>
      <g style="filter: url(#uuid-de057765-a96a-4ac9-aa81-b07d53eabc8e);">
        <path d="M406.297,271.934c-14.264,0-26.552,2.387-36.849,7.155-10.304,4.774-18.231,11.225-23.774,19.36-5.55,8.141-8.321,16.979-8.321,26.515,0,10.943,3.165,20.412,9.509,28.409,2.743,3.461,5.785,6.673,9.124,9.635l85.869-85.869c-11.393-3.463-23.245-5.205-35.558-5.205Z" style="fill: #b52429; stroke: #000; stroke-miterlimit: 10; stroke-width: .152px;"/>
        <path d="M392.168,17.26C185.061,17.26,17.168,181.488,17.168,384.074s167.893,366.814,375,366.814,375-164.228,375-366.814S599.274,17.26,392.168,17.26ZM523.648,166.498l92.092-46.727-46.727,92.092-16.085-16.085-31.728,31.728-13.184-13.184,31.728-31.728-16.096-16.096ZM125.597,611.579l59.433-79.386,19.953,19.953-79.386,59.433ZM211.341,544.151l-18.249-18.249,16.188-16.188,18.249,18.249-16.188,16.188ZM269.98,549.985c-9.03,0-16.35-7.32-16.35-16.35s7.32-16.35,16.35-16.35,16.35,7.32,16.35,16.35-7.32,16.35-16.35,16.35ZM528.682,332.482c-9.03,0-16.35-7.32-16.35-16.35s7.32-16.35,16.35-16.35,16.35,7.32,16.35,16.35-7.32,16.35-16.35,16.35ZM593.145,255.025c-8.004,8.004-14.809,16.308-20.127,24.299-3.62,5.446-6.549,10.718-8.72,15.67-2.64,5.993-4.126,11.486-4.382,16.158-1.945-2.089-3.62-4.339-5.025-6.751l-.126.126-52.499-52.499-23.599,23.599c11.745,3.518,21.701,7.337,29.857,11.459l-7.608,25.252c-9.971-9.517-21.406-17.733-34.3-24.66l-89.28,89.28c8.336,4.3,18.299,8.854,29.913,13.661l4.279,1.684,23.298,9.259,10.936,4.629c15.527,6.458,28.922,13.257,40.177,20.412,11.248,7.155,20.445,16.138,27.577,26.936,7.132,10.805,10.698,23.779,10.698,38.93,0,17.4-4.918,32.828-14.74,46.296-9.829,13.468-23.618,23.99-41.366,31.565-17.756,7.575-38.201,11.363-61.336,11.363-13.313,0-27.184-1.125-41.604-3.367-14.428-2.243-27.897-5.116-40.415-8.628-12.526-3.505-22.273-6.944-29.242-10.311l8.558-27.777c7.608,8.417,17.273,15.927,29.004,22.517,11.723,6.596,24.561,11.719,38.513,15.362,13.945,3.65,27.258,5.471,39.94,5.471,14.896,0,28.127-2.525,39.702-7.576,11.567-5.05,20.52-11.995,26.864-20.833,6.337-8.838,9.509-18.867,9.509-30.092,0-11.784-3.41-22.023-10.223-30.723-6.82-8.694-15.059-15.921-24.724-21.675-9.673-5.747-21.797-11.574-36.374-17.466-1.59-.842-3.172-1.539-4.755-2.104l-23.774-9.259c-2.853-1.401-6.181-2.802-9.985-4.209-13.445-5.814-25.482-11.944-36.109-18.389l-108.146,108.146-17.65-17.65,105.941-105.941c-3.661-3.703-7.039-7.713-10.127-12.041-7.608-10.66-11.411-23.286-11.411-37.878,0-15.427,4.591-29.389,13.789-41.877,9.19-12.481,22.184-22.306,38.989-29.461,16.797-7.155,36.136-10.732,58.008-10.732,13.242,0,26.321,1.174,39.238,3.504l34.326-34.326-56.52-56.52,1.313-1.313c7.979-1.518,17.714-5.992,27.951-12.878,7.828-5.266,15.961-11.954,23.785-19.778,20.828-20.828,33.488-43.71,33.248-57.835,18.845,18.881,13.952,54.385-10.942,79.278-8.076,8.076-17.274,14.058-26.643,17.784l76.868,76.868c3.711-9.599,9.751-18.991,18.007-27.247,24.911-24.911,60.415-29.804,79.296-10.96-14.125-.24-37.007,12.42-57.835,33.248Z" style="fill: #b52429; stroke: #000; stroke-miterlimit: 10; stroke-width: .152px;"/>
      </g>
      <ellipse cx="392.168" cy="384.074" rx="375" ry="366.815" style="filter: url(#uuid-c7a2b945-4358-4dd6-8f65-76cbfff4e833); opacity: .07;"/>
    </g>
  </g>
</svg>